<svg xmlns="http://www.w3.org/2000/svg" viewBox="0 0 500 326"><defs/><path fill="#e74c3c" d="M0 0h500v326H0z"/><path fill="#efefef" d="M12.5 37.3h195.9v1H12.5zM291.6 37.3h195.9v1H291.6zM82 188H62.4l-3.3-22.4H35.3L32 188H14.2L33.9 64.7h28.3zm-44.2-39.1h18.6l-9.1-62.4h-.4zM115.6 165.2h.3l14.7-100.5h17.7l-19 123.3h-28.9l-19-123.3H101zM176.7 116.7h26.6v17.6h-26.6v36H210V188h-52.8V64.7h52.8v17.6h-33.4zM262.6 188c-1-3.2-1.8-5.1-1.8-15.1v-19.5c0-11.4-3.8-15.6-12.7-15.6h-6.6V188H222V64.7h29.2c20 0 28.7 9.3 28.7 28.3v9.7c0 12.7-4 20.8-12.7 24.9v.3c9.7 4.1 12.9 13.2 12.9 26.1v19c0 6 .2 10.4 2.1 15zM241.5 82.3v37.9h7.5c7.2 0 11.6-3.2 11.6-13V95c0-8.8-3-12.7-9.8-12.7zM355.6 188H336l-3.3-22.4h-23.8l-3.4 22.4h-17.7l19.7-123.3h28.3zm-44.3-39H330l-9.2-62.4h-.3zM393.4 119.3h27.1v39c0 19.8-9.9 31-28.9 31s-28.8-11.2-28.8-31v-64c0-19.7 9.8-31 28.8-31s29 11.3 29 31v12h-18.4V93c0-8.8-3.9-12-10-12s-10 3.2-10 12v66.6c0 8.8 3.9 12 10 12s10-3.2 10-12V137h-8.8zM452.4 116.7H479v17.6h-26.6v36h33.4V188H433V64.7h52.8v17.6h-33.4zM27.2 237.8H45v11.9H27.2v24.2h22.5v11.8H14.2V203h35.5v11.8H27.2zM69.5 225.8h-.2v60H57.6V203h16.3L87 252.5h.2V203H99v82.8H85.5zM104.4 203h40.2v11.8H131v71h-13v-71h-13.6zM163.3 285.8h-13V203h13v35.5h14.8V203h13.2v82.8h-13.2v-35.5h-14.8zM213.2 203v63.9c0 5.9 2.6 8 6.8 8s6.7-2.1 6.7-8V203H239v63c0 13.2-6.6 20.8-19.4 20.8s-19.4-7.6-19.4-20.8v-63zM265.4 202c12.6 0 19.1 7.6 19.1 20.8v2.6h-12.3V222c0-6-2.3-8.2-6.5-8.2s-6.5 2.3-6.5 8.2 2.6 10.5 11.1 18c11 9.6 14.4 16.4 14.4 26 0 13.2-6.7 20.7-19.4 20.7s-19.4-7.5-19.4-20.8v-5h12.3v5.8c0 6 2.6 8 6.7 8s6.7-2 6.7-8-2.6-10.5-11-18c-11-9.5-14.4-16.4-14.4-25.9 0-13.2 6.5-20.8 19.2-20.8zM292.1 203h13v82.8h-13zM356.7 285.8h-13.1l-2.3-15h-16l-2.2 15h-12l13.3-82.8h19zM327 259.4h12.5l-6.1-41.9h-.2zM380.2 202c12.7 0 19.2 7.6 19.2 20.8v2.6H387V222c0-6-2.4-8.2-6.5-8.2s-6.5 2.3-6.5 8.2 2.6 10.5 11 18c11 9.6 14.4 16.4 14.4 26 0 13.2-6.6 20.7-19.4 20.7s-19.4-7.5-19.4-20.8v-5H373v5.8c0 6 2.6 8 6.7 8s6.8-2 6.8-8-2.6-10.5-11.1-18c-11-9.5-14.3-16.4-14.3-25.9 0-13.2 6.4-20.8 19.1-20.8zM403.1 203h40.3v11.8h-13.6v71h-13v-71H403zM466.6 202c12.6 0 19.1 7.6 19.1 20.8v2.6h-12.3V222c0-6-2.4-8.2-6.5-8.2s-6.5 2.3-6.5 8.2 2.6 10.5 11.1 18c10.9 9.6 14.3 16.4 14.3 26 0 13.2-6.6 20.7-19.4 20.7S447 279.1 447 266v-5.1h12.3v6c0 5.8 2.6 8 6.7 8s6.8-2.2 6.8-8-2.6-10.6-11.1-18c-11-9.7-14.3-16.5-14.3-26 0-13.2 6.5-20.8 19.2-20.8zM13.9 305.8h471.6v1H13.9zM235.8 45.6c0 .3-.4.8-1.3 1.6a7.4 7.4 0 01-5.1 2 5.7 5.7 0 01-4.2-1.4c-.5-.5-.8-2.1-.8-4.7V28a.6.6 0 00-.5-.6H222c-.7 0-1.1-.1-1.1-.3s.2-.4.6-.4a7.7 7.7 0 006-3.9.9.9 0 01.8-.5.3.3 0 01.3.4v1a11.2 11.2 0 00.2 2.8 7.5 7.5 0 001.5 0 16.6 16.6 0 003.7-.2 1.6 1.6 0 01.4 0c.2 0 .4.1.4.4 0 .5-1.4.7-4 .7h-2.2v9.3a62.2 62.2 0 00.4 8.9 2 2 0 002.3 1.7 5.9 5.9 0 003.7-1.8.6.6 0 01.5-.3c.2 0 .3.1.3.3z"/><path fill="#efefef" d="M258.7 48.3c0 .2-.3.4-.8.4h-9.2c-.4 0-.6-.2-.6-.5s.6-.3 1.9-.3c.7 0 1.2 0 1.3-.3a5.3 5.3 0 00.2-1.9V35.5a22.8 22.8 0 00-.4-5.6q-.9-2.3-3.8-2.3a4.6 4.6 0 00-4 2.1 6.2 6.2 0 00-.4 3.1v12.8a13 13 0 000 1.6c0 .3.2.5.4.6a20.6 20.6 0 002.2.1c.4 0 .6.1.6.4s-.2.4-.5.4H236c-.4 0-.6-.1-.6-.3s.2-.4.6-.4h1.5c.8 0 1.2-.2 1.2-.7V24.6c0-5.4 0-8.3-.2-8.7s-1-.5-2.5-.6c-.8 0-1.2 0-1.2-.3s0-.4.2-.4a16.7 16.7 0 011.7-.1 11.4 11.4 0 005-1.2 6.3 6.3 0 01.7-.3 11.6 11.6 0 01.3 4v12.2a7 7 0 016-3.2q4 0 5.8 2.2a6 6 0 011 3.1 32.1 32.1 0 01.1 3.4v12.7c0 .3 1 .5 2.7.5.3.1.4.2.4.4zM279.1 43a4.4 4.4 0 01-.7 1.9 11 11 0 01-1.6 2 7.7 7.7 0 01-5.8 2.3 10 10 0 01-7.6-3.3 11.4 11.4 0 01-3-8.1 12.4 12.4 0 013-8.4 9.2 9.2 0 017.1-3.4 8.8 8.8 0 016 2 7.2 7.2 0 012.6 5.5 25.9 25.9 0 01-4.3.2h-3.5l-6 .1a20.6 20.6 0 00-.3 3.2q0 5 2 7.8a6.3 6.3 0 005.4 2.7 5.3 5.3 0 003.2-.9 11 11 0 002.6-3.5.6.6 0 01.6-.4c.2 0 .3.1.3.4zm-4.3-10.2q-.2-6-4.4-6t-5 6z"/></svg>