<svg xmlns="http://www.w3.org/2000/svg" id="Layer_1" data-name="Layer 1" viewBox="0 0 1500 1344"><defs/><defs><style>.cls-1{fill:#26529a}.cls-2{fill:#f74646}</style></defs><path d="M236.8 879.3v168.6a1.5 1.5 0 01-1.5 1.5H126.8a1.5 1.5 0 01-1.5-1.5V879.2a.1.1 0 00-.1 0H26.5a1.5 1.5 0 01-1.5-1.6v-75.9a1.5 1.5 0 011.5-1.5h308.7a1.5 1.5 0 011.6 1.5v76a1.5 1.5 0 01-1.6 1.4H237a.1.1 0 00-.2.1zM591.7 1048v-85H493a.1.1 0 00-.1 0v85a1.5 1.5 0 01-1.5 1.4H383.3a1.5 1.5 0 01-1.5-1.5V801.7a1.5 1.5 0 011.5-1.5h108a1.5 1.5 0 011.6 1.5v92a.1.1 0 00.1 0h98.6a.1.1 0 00.1 0v-92a1.5 1.5 0 011.5-1.5h108.5a1.5 1.5 0 011.5 1.5V1048a1.5 1.5 0 01-1.5 1.5H593.2a1.5 1.5 0 01-1.5-1.5zM1289.1 879.3v168.6a1.5 1.5 0 01-1.5 1.5H1179a1.5 1.5 0 01-1.5-1.5V879.2a.1.1 0 00-.1 0h-98.7a1.5 1.5 0 01-1.5-1.6v-75.9a1.5 1.5 0 011.5-1.5h308.7a1.5 1.5 0 011.5 1.5v76a1.5 1.5 0 01-1.5 1.4h-98.3a.1.1 0 000 .1zM1096.6 1049.3l-117.4-249a.1.1 0 00-.1 0H798a1.5 1.5 0 00-1.5 1.5l17.7 59.7 5 17.7-78.8 170.1a.1.1 0 00.1.2h96a.1.1 0 00.1 0l19.4-43a.1.1 0 01.1 0h103.2l16.9 42a1.5 1.5 0 001.4 1h119a.1.1 0 000-.2zM937.1 949h-56.2a.1.1 0 01-.1-.1l29.8-68.1a.1.1 0 01.1 0l26.5 68.1a.1.1 0 01-.1.1zM323 1219.2c-2 24.5-16.3 39.7-38 39.7-26 0-40.8-20.4-40.8-55.9 0-35.8 14.8-56 41.2-56a33 33 0 0130.1 15.9c4.3 6.8 6 13.8 7 26.2l-21.8 1.6c-.6-9.5-1.3-13.2-3.4-17-2.7-4.9-6.7-7.3-11.7-7.3-11.6 0-16.3 11.3-16.3 38.4 0 24.6 4.7 34.7 16.3 34.7 8.6 0 13.5-6.8 15.3-21.8zM409.1 1157.4c8.8 9.7 13 24.3 13 45.6 0 36.8-13.5 55.9-39.3 55.9s-39.4-19-39.4-55.5q0-56.4 39.8-56.4c10.5 0 19.8 3.8 26 10.4zm-40.6 45.3c0 27.5 3.5 36.8 14.3 36.8s14.3-9.3 14.3-36.6c0-27-3.7-36.5-14.2-36.5-10.7 0-14.4 9.1-14.4 36.3zM474 1148.7l27.6 67.3v-67.3h18.6v108.5h-21.3l-32.9-78.6v78.6h-18.6v-108.5zM613.8 1148.7v18.7h-40.5v28.3h31.3v18.7h-31.3v42.8h-23.8v-108.5zM697.2 1148.7v18.7h-42.1v25h32.8v18.7h-32.8v26.7h42.1v19.4h-65.9v-108.5zM752.6 1148.7c14.7 0 19.4 1.1 25.7 5.7 7.5 5.7 11.8 15.3 11.8 27.2 0 13.8-4.5 21.8-15.3 28.3l20 47.3h-26l-14.5-42.8h-12v42.8h-23.7v-108.5zm-10.2 48.2h10.4c9 0 14-5.6 14-15.8 0-5.2-1.6-9.6-4.8-12.2-2-1.8-5-2.7-10.2-2.7h-9.4zM883 1148.7v18.7h-42.3v25h32.9v18.7h-32.9v26.7H883v19.4H817v-108.5zM929.8 1148.7l27.7 67.3v-67.4H976v108.6h-21.3l-33-78.6v78.6h-18.4v-108.5zM1080.4 1219.2c-2 24.5-16.2 39.7-37.9 39.7-26 0-40.9-20.4-40.9-55.9 0-35.8 14.8-56 41.2-56a33 33 0 0130.2 15.9 54 54 0 017 26.2l-21.9 1.6c-.6-9.5-1.3-13.2-3.4-17-2.7-4.9-6.7-7.3-11.7-7.3-11.5 0-16.3 11.3-16.3 38.4 0 24.6 4.8 34.7 16.3 34.7 8.6 0 13.5-6.8 15.3-21.8zM1169.8 1148.7v18.7h-42.1v25h32.8v18.7h-32.9v26.7h42.2v19.4h-65.9v-108.5zM1475 823.7c0 14-11 25-25.3 25s-25.5-11-25.5-25c0-13.7 11.3-24.7 25.5-24.7s25.3 11 25.3 24.7zm-44.5 0c0 9.4 6 17.2 14.8 19.2 12.5 2.9 24-7.3 23.4-20a19 19 0 00-19-19c-11 .1-19.2 9-19.2 19.8zm15 13h-5.3a.2.2 0 01-.2-.2v-24.4a.2.2 0 01.2-.2 53.8 53.8 0 019.3-.7c4.7 0 6.8.7 8.6 1.8a6.8 6.8 0 012.4 5.4c0 2.7-2.1 4.8-5.1 5.7v.3c2.4 1 3.7 2.7 4.5 6s1.1 5 1.6 6a.2.2 0 01-.2.3h-5.7a.2.2 0 01-.1-.1c-.7-1-1.2-3.2-2-6-.4-2.8-2-4-5-4h-2.5a.2.2 0 00-.2.3v9.5a.2.2 0 01-.2.3zm.4-14.2a.2.2 0 00.2.2h2.5c3.2 0 5.8-1 5.8-3.6 0-2.3-1.7-3.8-5.3-3.8a13 13 0 00-3 .3.2.2 0 00-.2.2z" class="cls-1"/><path d="M1059 429.9L953.8 262.2h38.8l-111.5-177-111.5 177h38.9L707.9 422.5 607.3 262.2H646l-111.5-177-111.5 177H462L356.7 429.9h38.8L286 605.3h203.5v74.3h90.4v-74.3H836v74.3h90.4v-74.3h203.5L1020.2 430zm-385.3 0H742l-34.2 54.7zM202.7 148L76.2 274.5l-48.6 48.6 48.6 48.7 126.5 126.5 48.6-48.7-126.4-126.5 126.4-126.4-48.6-48.7zM1339.5 274.5L1213 148l-48.6 48.7 126.5 126.4-126.5 126.5 48.6 48.7 126.5-126.5 48.7-48.7-48.7-48.6z" class="cls-2"/></svg>