<svg xmlns="http://www.w3.org/2000/svg" id="Layer_1" x="0" y="0" version="1.1" viewBox="0 0 162.5 96.1" xml:space="preserve"><defs/><style>.st0{fill:#353535}.st1{fill:#828282}</style><path d="M10.4 78.5h3v1.8c1.1-1.1 2.1-2.1 3.7-2.1 1.3 0 2.5.8 2.8 2.1 1-1.2 2.4-2 3.9-2.1 2.2 0 3.1 1.6 3.1 3.7v8.9h-3v-8.2c0-1.2-.5-1.8-1.5-1.8s-1.2.2-2.4 1.5v8.5h-3v-8.2c0-1.2-.5-1.8-1.4-1.8s-1.2.2-2.4 1.5v8.5h-3l.2-12.3zM36.2 89c-.9 1.2-2.3 2-3.8 2.1-2.1 0-3.4-1.5-3.4-3.7 0-3.2 2.5-4.2 5.9-4.2h1.3v-.9c.1-1-.6-1.8-1.6-1.9h-.4c-1.4 0-1.8.8-2.2 1.9l-2.6-.7c.7-1.7 1.9-3.1 4.9-3.1 2.7 0 4.7 1.2 4.7 4.4v6l.1 2.1h-2.8l-.1-2zm0-4.1h-.9c-2.5 0-3.5.8-3.5 2.2-.1.8.5 1.6 1.3 1.7h.2c1.1 0 1.5-.3 2.8-1.4v-2.5zM41.2 78.5h3v1.9a4.6 4.6 0 013.5-2h.6V81l-1-.1c-1.3.1-2.4.9-3 2.1v7.9h-3l-.1-12.4zM56.5 81h-2.9v5.7c0 1.3.1 2.1 1.5 2.1l1.4-.2v2.1c-.7.2-1.5.4-2.3.4-2.8 0-3.6-1.9-3.6-3.9V81h-1.8v-2.5h1.8v-2.8l3-1.2v4h2.9V81zM58.4 74.9h3v2.2h-3v-2.2zm0 3.6h3v12.3h-3V78.5zM71.3 82.6c0-1.2-.6-1.8-1.5-1.8s-1.6.5-2.6 1.5v8.5h-3V78.5h3v1.8a6.5 6.5 0 014.1-2.1c2.4 0 3 1.8 3 3.6v8.9h-3v-8.1zM86.8 88c-.7 2-2.7 3.3-4.8 3.1-3.5 0-5.7-2.4-5.7-6.4 0-3.8 2-6.4 5.7-6.4s5.2 2.8 5.2 6v1.1h-7.9c0 1.5.5 3.6 2.6 3.6 1.1 0 2-.8 2.3-1.8l2.6.8zm-2.5-4.5c0-2-.9-3.1-2.3-3.1-1.8 0-2.5 1.5-2.6 3.1h4.9zM88.4 88.9l6-8.2h-5.8v-2.1H98v2l-6 8.2h6.2v2.1h-9.8v-2z" class="st0"/><path d="M103 78.5l4 10.4 4-10.4h1.9v12.3h-1.1V79.5l-4.4 11.3h-.9l-4.3-11.3v11.3H101V78.5h2zM115.4 78.5h7.1v.9h-6V84h5.7v.9h-5.7V90h6.1v.9h-7.2V78.5zM127.9 78.5c5 0 5.8 4.1 5.8 6.2 0 2.5-1.1 6.1-6.5 6.1h-2.6V78.5h3.3zm-2.2 11.4h1.7a5 5 0 005.3-4.6v-.7c0-2.2-.9-5.2-5.1-5.2h-1.8l-.1 10.5zM135.9 78.5h1.1v12.3h-1.1V78.5zM143.3 78.5h1.4l4.9 12.3h-1.2l-1.3-3.5H141l-1.4 3.5h-1.2l4.9-12.3zm3.3 7.9l-2.2-5.6-.5-1.3-.5 1.3-2.2 5.6h5.4z" class="st1"/><path d="M11.5 5.6h13.8v8.5c5.3-5.2 9.7-9.6 17.4-9.6 7.4 0 11.3 4.1 13.3 9.6 4.7-5.2 10.9-9.6 18.2-9.6 10.4 0 14.4 7.2 14.4 17V63H74.9V24.7c0-5.4-2.5-8.5-6.7-8.5-3.6 0-5.6 1.1-11.2 7.1V63H43.2V24.7c0-5.4-2.5-8.5-6.7-8.5-3.5 0-5.6 1.2-11.1 7.1V63H11.5V5.6z" class="st0"/><path d="M103.8 5.6l18.4 48.6 18.6-48.6h8.7v57.3h-5V10.3l-.2.1L124 62.9h-4.2l-20-52.7-.2-.1v52.8h-5V5.6h9.2z" class="st1"/><path fill="#62061e" d="M10.4 69.4h46.4v1.5H10.4z" opacity=".5"/><path fill="#216130" d="M56.8 69.4h46.4v1.5H56.8z" opacity=".5"/><path fill="#21395e" d="M103.2 69.4h46.4v1.5h-46.4z" opacity=".5"/><g opacity=".2"><path d="M149.9 78.8v.3h-2v1h-.2v-1.2l2.2-.1zM149.9 80.3v.3h-2v.9h-.2v-1.2h2.2zM148.2 83.4c-.4-.1-.6-.4-.6-.8 0-.7.6-1 1.1-1 .9 0 1.1.5 1.1 1 0 .4-.2.7-.5.8l-.1-.3c.2-.1.4-.3.4-.5 0-.5-.5-.7-.9-.7s-.9.1-.9.7c0 .3.2.5.4.5v.3z"/></g></svg>