<svg xmlns="http://www.w3.org/2000/svg" viewBox="0 0 500 326"><defs/><path fill="none" stroke="#000" stroke-miterlimit="10" d="M12.5 37.8h195.9M291.6 37.8h195.9"/><path d="M80.3 188H60.7l-3.3-22.4H33.6L30.3 188H12.5L32.2 64.7h28.4zM36 148.9h18.7l-9.2-62.4h-.3zM114 165.2h.3l14.6-100.5h17.8l-19 123.3h-29l-19-123.3h19.6zM175 116.7h26.6v17.6H175v36h33.5V188h-52.9V64.7h52.9v17.6H175zM261 188c-1.1-3.2-1.8-5.1-1.8-15.1v-19.5c0-11.4-4-15.6-12.7-15.6h-6.7V188h-19.4V64.7h29.2c20.1 0 28.7 9.3 28.7 28.3v9.7c0 12.7-4 20.8-12.6 24.9v.3c9.6 4 12.8 13.2 12.8 26v19c0 6 .2 10.5 2.1 15zM239.7 82.3v37.9h7.6c7.2 0 11.6-3.2 11.6-13V95c0-8.8-3-12.7-9.9-12.7zM353.9 188h-19.6l-3.3-22.4h-23.8L304 188H286l19.7-123.3h28.3zm-44.2-39h18.6l-9.1-62.4h-.4zM391.7 119.3h27.1v39c0 19.8-9.8 31-28.8 31s-29-11.2-29-31v-64c0-19.7 10-31 29-31s28.8 11.3 28.8 31v12h-18.3V93c0-8.8-3.9-12-10-12s-10 3.2-10 12v66.6c0 8.8 4 12 10 12s10-3.2 10-12V137h-8.8zM450.7 116.7h26.6v17.6h-26.6v36h33.5V188h-52.9V64.7h52.8v17.6h-33.4zM28.9 237.8h17.8v11.9H29v24.2h22.4v11.8H16V203h35.4v11.8H29zM71.2 225.8H71v60H59.2V203h16.4l13.1 49.6h.2V203h11.6v82.8H87.2zM106 203h40.3v11.8h-13.6v71h-13v-71h-13.6zM165 285.8h-13V203h13v35.5h14.8V203H193v82.8h-13.2v-35.5H165zM214.9 203v63.9c0 5.9 2.6 8 6.7 8s6.8-2.1 6.8-8V203h12.3v63c0 13.2-6.6 20.8-19.4 20.8s-19.4-7.6-19.4-20.8v-63zM267 202c12.7 0 19.2 7.6 19.2 20.8v2.6H274V222c0-6-2.4-8.2-6.5-8.2s-6.5 2.3-6.5 8.2 2.6 10.5 11.1 18c10.9 9.6 14.3 16.4 14.3 26 0 13.2-6.6 20.7-19.4 20.7s-19.4-7.5-19.4-20.8v-5h12.3v5.8c0 6 2.6 8 6.8 8s6.7-2 6.7-8-2.6-10.5-11.1-18c-10.9-9.5-14.3-16.4-14.3-25.9 0-13.2 6.5-20.8 19.2-20.8zM293.8 203h13v82.8h-13zM358.4 285.8h-13.2l-2.2-15h-16l-2.3 15h-11.9l13.3-82.8h19zm-29.7-26.3h12.5l-6.2-41.9h-.2zM381.9 202c12.6 0 19.2 7.6 19.2 20.8v2.6h-12.4V222c0-6-2.3-8.2-6.5-8.2s-6.5 2.3-6.5 8.2 2.6 10.5 11.2 18c10.8 9.6 14.3 16.4 14.3 26 0 13.2-6.7 20.7-19.4 20.7s-19.4-7.5-19.4-20.8v-5h12.3v5.8c0 6 2.6 8 6.7 8s6.8-2 6.8-8-2.6-10.5-11.2-18c-10.8-9.5-14.3-16.4-14.3-25.9 0-13.2 6.5-20.8 19.2-20.8zM404.8 203H445v11.8h-13.6v71h-13v-71h-13.6zM468.2 202c12.7 0 19.2 7.6 19.2 20.8v2.6H475V222c0-6-2.4-8.2-6.5-8.2s-6.5 2.3-6.5 8.2 2.6 10.5 11 18c11 9.6 14.4 16.4 14.4 26 0 13.2-6.6 20.7-19.4 20.7s-19.4-7.5-19.4-20.8v-5H461v5.8c0 6 2.6 8 6.8 8s6.7-2 6.7-8-2.6-10.5-11.1-18c-11-9.5-14.3-16.4-14.3-25.9 0-13.2 6.5-20.8 19.1-20.8z"/><path fill="none" stroke="#000" stroke-miterlimit="10" d="M13.9 306.3h471.7"/><path d="M235.8 45.6c0 .3-.4.8-1.3 1.6a7.4 7.4 0 01-5.1 2 5.7 5.7 0 01-4.2-1.4c-.5-.5-.8-2.1-.8-4.7V28a.6.6 0 00-.5-.6H222c-.7 0-1.1-.1-1.1-.3s.2-.4.6-.4a7.7 7.7 0 006-3.9.9.9 0 01.8-.5.3.3 0 01.3.4v1a11.2 11.2 0 00.2 2.8 7.5 7.5 0 001.5 0 16.6 16.6 0 003.7-.2 1.6 1.6 0 01.4 0c.2 0 .4.1.4.4 0 .5-1.4.7-4 .7h-2.2v9.3a62.2 62.2 0 00.4 8.9 2 2 0 002.3 1.7 5.9 5.9 0 003.7-1.8.6.6 0 01.5-.3c.2 0 .3.1.3.3z"/><path d="M258.7 48.3c0 .2-.3.4-.8.4h-9.2c-.4 0-.6-.2-.6-.5s.6-.3 1.9-.3c.7 0 1.2 0 1.3-.3a5.3 5.3 0 00.2-1.9V35.5a22.8 22.8 0 00-.4-5.6q-.9-2.3-3.8-2.3a4.6 4.6 0 00-4 2.1 6.2 6.2 0 00-.4 3.1v12.8a13 13 0 000 1.6c0 .3.2.5.4.6a20.6 20.6 0 002.2.1c.4 0 .6.1.6.4s-.2.4-.5.4H236c-.4 0-.6-.1-.6-.3s.2-.4.6-.4h1.5c.8 0 1.2-.2 1.2-.7V24.6c0-5.4 0-8.3-.2-8.7s-1-.5-2.5-.6c-.8 0-1.2 0-1.2-.3s0-.4.2-.4a16.7 16.7 0 011.7-.1 11.4 11.4 0 005-1.2 6.3 6.3 0 01.7-.3 11.6 11.6 0 01.3 4v12.2a7 7 0 016-3.2q4 0 5.8 2.2a6 6 0 011 3.1 32.1 32.1 0 01.1 3.4v12.7c0 .3 1 .5 2.7.5.3.1.4.2.4.4zM279.1 43a4.4 4.4 0 01-.7 1.9 11 11 0 01-1.6 2 7.7 7.7 0 01-5.8 2.3 10 10 0 01-7.6-3.3 11.4 11.4 0 01-3-8.1 12.4 12.4 0 013-8.4 9.2 9.2 0 017.1-3.4 8.8 8.8 0 016 2 7.2 7.2 0 012.6 5.5 25.9 25.9 0 01-4.3.2h-3.5l-6 .1a20.6 20.6 0 00-.3 3.2q0 5 2 7.8a6.3 6.3 0 005.4 2.7 5.3 5.3 0 003.2-.9 11 11 0 002.6-3.5.6.6 0 01.6-.4c.2 0 .3.1.3.4zm-4.3-10.2q-.2-6-4.4-6t-5 6z"/></svg>