<svg xmlns="http://www.w3.org/2000/svg" viewBox="0 0 196.5 196.5"><defs/><defs><clipPath id="a"><path fill="none" d="M191.6 82.2a21.5 21.5 0 010 30.4l-71 71a21.5 21.5 0 01-30.4 0l-70.9-71a21.5 21.5 0 010-30.4l71-70.9a21.5 21.5 0 0130.3 0z"/></clipPath><clipPath id="b"><path fill="none" d="M299.4 47a10.9 10.9 0 010 15.4l-36 36a11 11 0 01-15.5 0l-36-36a11 11 0 010-15.4l36-36a11 11 0 0115.5 0z"/></clipPath></defs><g clip-path="url(#a)"><path fill="#ec008c" d="M42 30l63.5-63.6L168.9 30l-63.5 63.5z"/><path fill="#00aeef" d="M-25.6 97.4l63.5-63.5 63.5 63.5L37.9 161z"/><path fill="#eedc00" d="M42 165l63.4-63.5L169 165l-63.5 63.5z"/><path fill="#fff" d="M34.8 120.2V87.5c0-8.8 5-18.4 18-18.4S71 78.7 71 87.5v32.7H59.7v-18H48.9v-9.8h11v-6.8c0-3.7-1.8-6.7-7-6.7s-6.8 3-6.8 6.7v34.6zM118.4 34.2a18 18 0 00-13-5.5c-9 0-15.4 7.2-15.4 15.6S96.3 60 105.5 60c6.2 0 12.4-5 13.4-10.7h-14V40H130v6.8a25 25 0 01-25.5 23.9c-15 0-25.6-11.9-25.6-26s10.6-26 25.6-26c7 0 14.6 2 20.6 7.8zM86.4 171v-32.7c0-8.8 5-18.4 18-18.4s18 9.6 18 18.4v32.8h-11.1V153h-11v-9.8h11v-6.8c0-3.7-1.7-6.7-7-6.7s-6.7 3-6.7 6.8V171z"/></g><g clip-path="url(#b)"><path fill="#00aeef" d="M189 54.7l32.3-32.2 32.2 32.2L221.3 87z"/></g></svg>