<svg xmlns="http://www.w3.org/2000/svg" viewBox="0 0 100 100"><defs/><path fill="#0cf" d="M50 100a50 50 0 1150-50 50 50 0 01-50 50z"/><path fill="#fff" d="M79 27a24 24 0 01-6 2l3-3a11 11 0 002-3v-1h-1a30 30 0 01-7 3 5 5 0 00-1-1 12 12 0 00-3-2 12 12 0 00-5-1 12 12 0 00-5 2 13 13 0 00-4 3 12 12 0 00-3 5 13 13 0 000 5c-10-2-17-5-24-12h-1c-2 4-1 11 2 14a17 17 0 002 1 12 12 0 01-5-1 8 8 0 000 2 12 12 0 008 10 8 8 0 001 0 14 14 0 01-4 0l-1 1c2 5 7 7 10 8h1c-1 2-5 3-7 3a23 23 0 01-9 2h-1l2 1a33 33 0 007 3c11 3 25 1 34-8 7-7 9-17 9-26l1-1a23 23 0 005-5 1 1 0 000-1z"/></svg>