<svg xmlns="http://www.w3.org/2000/svg" viewBox="0 0 800.1 76.9"><defs/><path fill="#82ccd4" d="M72.1 30.4L63.3 15 43.9 25.7 39.9 3 23.1 5.9l4 22.8-22.6-3.3-2.2 17.4L25.4 45 13.7 66.7 29.6 74l10.3-21.8L57 69.5l12-12.6-17.9-16.6 21-9.9zM87 5.2h18.6c10.3 0 15.6 1.4 19 4a22.5 22.5 0 018.7 18.5 24 24 0 01-3.7 13.1c-3.4 5-7.6 6.6-12.7 7.5l15.4 25.5h-11l-18-31h2.3c4.5 0 10-.1 13-3a15 15 0 004.6-11.2c0-4.6-2.1-9.2-5.6-11.6-2.8-1.8-6.5-2.2-11.1-2.2h-9v59H87.1zM147.4 73.8H136l27-68.6h9.5l26.4 68.6h-11.3l-6.2-16.2h-28zm19.9-56l-11 31h22.2zM204.2 5.2h20.3c8.8 0 19.7 1.3 27 11.1 4.9 6.2 7.1 14.1 7.1 23.1 0 20-10.4 34.4-33.4 34.4h-21zm10.5 59h11c15.5 0 22.5-10.3 22.5-24.6 0-6.6-1.6-13-5.3-17.6-3.4-4.2-8.7-7.2-17-7.2h-11.2zM267.3 5.2h10.5v68.6h-10.5zM294.3 73.8h-11.4l27-68.6h9.4l26.5 68.6h-11.3l-6.2-16.2h-28zm19.9-56l-11 31h22.2zM395 57.4l-.2-52.2H405v68.6h-9.5L361 21.5l.1 52.3h-10V5.2h9.8zM425.3 14.8h-15.1V5.2h40.5v9.6h-15v59h-10.4zM520.7 58.9A33.3 33.3 0 01492 75c-18.8 0-34-15-34-35.5S473.3 4 492 4c14 .1 23.9 8.7 28.6 16.5h-3c-2.5-3.6-11.1-13.9-25.6-14-17.4 0-31.4 14-31.4 33s14 33 31.4 33c15.3 0 23.7-11 25.5-13.6zM528.5 73.8V5.2h2.7V38h36.6V5.2h2.7v68.6h-2.7V40.5h-36.6v33.3zM585.2 5.2v44.5c0 6.7 0 11 4 16.5a17 17 0 0013.5 6.3c5 0 10.4-2.4 13.2-6.3 4.1-5.5 4.1-9.8 4.1-16.5V5.2h2.6v44.5c.1 6.2-.1 15.5-7.8 21.2a19.8 19.8 0 01-24.4 0c-7.7-5.7-8-15-7.9-21.2V5.2zM634.3 5.2h15c10.2 0 14.3.9 17.5 2.8 5.3 2.8 9.5 10.3 9.5 18.3a23 23 0 01-4.2 14c-4.8 6.5-10.3 7.4-17.7 7.6L672 74h-3.4l-19.2-28.5h1.9c4.7 0 12.5 0 16.7-4.3a20.3 20.3 0 005.6-14.7c0-6-2.8-12.5-7.8-16-4-2.7-8.8-2.8-16.5-2.8H637v66.2h-2.7zM743 58.9A33.3 33.3 0 01714.2 75c-18.7 0-34-15-34-35.5S695.6 4 714.3 4c14 .1 24 8.7 28.7 16.5h-3c-2.6-3.6-11.1-13.9-25.7-14-17.3 0-31.3 14-31.3 33s14 33 31.3 33c15.4 0 23.8-11 25.6-13.6zM750.8 73.8V5.2h2.6V38h36.7V5.2h2.6v68.6h-2.6V40.5h-36.7v33.3z"/></svg>