<svg xmlns="http://www.w3.org/2000/svg" viewBox="0 0 414.9 128.3"><defs/><path fill="#013c5b" d="M64.8 59.7h-2.3v64a3.8 3.8 0 107.6 0V65a5.4 5.4 0 00-5.3-5.3zM28 89.9C13.2 86.7 9.7 83.2 9.7 76.8v-.2c0-6 5.6-10.9 14.4-10.9a28.2 28.2 0 0117.4 5.9 3.6 3.6 0 002.2.7 3.7 3.7 0 003.7-3.7 4 4 0 00-1.6-3 34.4 34.4 0 00-21.5-6.7C11.5 58.9 2 66.7 2 77.3v.2c0 11 7.1 16 22.7 19.4 14.1 3 17.5 6.6 17.5 12.8v.2c0 6.7-6 11.5-15 11.5-8.6 0-15-2.6-21.3-8a3.4 3.4 0 00-2.3-.9 3.7 3.7 0 00-3.7 3.8 3.4 3.4 0 001.5 2.9 39.4 39.4 0 0025.5 9c13.4 0 23-7.5 23-19v-.3c0-10.2-7-15.7-22-19zM217.4 120.3h-34.5v-55a5.4 5.4 0 00-5.3-5.4h-2.3v67.4h42a3.5 3.5 0 000-7zM372.6 120.3h-37.4v-25h26a3.5 3.5 0 003.5-3.5 3.5 3.5 0 00-3.4-3.5h-26V66.8H372a3.5 3.5 0 000-7h-44.5v67.5h45a3.5 3.5 0 000-7zM306.5 65.2V114l-40-51a8.2 8.2 0 00-6.4-3h-3.2v63.7a3.7 3.7 0 007.4 0V72l41.1 52.2a8.2 8.2 0 006.4 3h2.1V59.9h-2a5.4 5.4 0 00-5.4 5.4zM235.3 59.9H233v63.6a3.8 3.8 0 007.6 0V65.2a5.3 5.3 0 00-5.3-5.3zM80.9 95.2l22 28.3 3 3.8h9.2L89.9 95.2h-9zM140.8 87.3l-21.7-27.5h-8.9L137 94.2v29.2a3.9 3.9 0 007.7 0V94.1l26.8-34.3h-9z"/><path fill="#58c9e7" d="M414.9 59.9h-9.8C369 27.3 316.6 6.7 258 6.7c-55 0-104.8 18.2-140.4 47.4h-10.3c2.5-2.3 5.1-4.5 7.8-6.6C153.4 16.9 204.2 0 258 0s104.6 16.9 142.8 47.5a181.9 181.9 0 0114 12.4zm-313.6-.1a161.4 161.4 0 00-27.5 35.4h7.9a159.7 159.7 0 0129.5-35.4z"/></svg>