<svg xmlns="http://www.w3.org/2000/svg" viewBox="0 0 100 100"><defs/><path fill="#fe7712" d="M50 100a50 50 0 1150-50 50 50 0 01-50 50z"/><path fill="#fff" d="M11.7 48.3a.4.4 0 00-.4.4l-.8 7.7.8 7.5a.4.4 0 00.8 0l1-7.5-1-7.7a.4.4 0 00-.4-.4zm-3.2 3a.3.3 0 00-.3.3l-.6 4.8.6 4.7a.3.3 0 00.3.3.4.4 0 00.4-.3l.7-4.7-.7-4.8a.4.4 0 00-.4-.3zm6.6-4.5a.4.4 0 00-.5.4l-.8 9.2.8 8.8a.4.4 0 00.5.4.4.4 0 00.4-.4l1-8.8-1-9.2a.4.4 0 00-.4-.4zm3.4-.3a.5.5 0 00-.5.5l-.8 9.4.8 9a.5.5 0 00.5.6.5.5 0 00.5-.5l.9-9.1L19 47a.5.5 0 00-.5-.5zm4 1.2a.6.6 0 00-.6-.6.6.6 0 00-.6.6l-.7 8.7.7 9.1a.6.6 0 00.6.6.6.6 0 00.6-.6l.8-9.1-.8-8.7zm2.9-6.1a.7.7 0 00-.7.6L24 56.4l.7 9.1a.7.7 0 00.6.7.7.7 0 00.7-.7l.7-9.1-.7-14.2a.7.7 0 00-.7-.6zm3.4-3.3a.7.7 0 00-.8.7l-.6 17.4.7 9.1a.7.7 0 001.4 0l.7-9-.7-17.5a.7.7 0 00-.7-.7zm3.5-1.6a.8.8 0 00-.8.8L31 56.4l.6 9a.8.8 0 00.8.8.8.8 0 00.8-.8l.6-9-.6-18.9a.8.8 0 00-.8-.8zm4.4.2a.9.9 0 00-.8-.9.9.9 0 00-.9.9l-.5 19.5.5 9a.9.9 0 00.9.8.9.9 0 00.8-.8l.6-9-.6-19.5zm2.7-.4a1 1 0 00-1 .9l-.4 19 .5 8.9a1 1 0 001.9 0l.5-9-.5-19a1 1 0 00-1-.8zm3.6.6a1 1 0 00-1 1l-.5 18.3.5 8.8a1 1 0 002 0l.5-8.8L44 38a1 1 0 00-1-1zm4.2-3.4a1 1 0 00-.6-.2 1.1 1.1 0 00-.6.2 1.1 1.1 0 00-.5.9v.2l-.4 21.6.4 8.8a1.1 1.1 0 00.3.6 1 1 0 001.6 0 1.1 1.1 0 00.3-.7v-.9l.4-7.8-.4-21.8a1.1 1.1 0 00-.5-.9zm3.6-2a1.1 1.1 0 00-1.3 0 1.2 1.2 0 00-.4 1l-.5 23.7.3 4.4.2 4.2a1.2 1.2 0 002.3 0l.5-8.6-.5-23.8a1.2 1.2 0 00-.6-1zm32 13.4a10.7 10.7 0 00-4.1.9 18.6 18.6 0 00-18.5-17 18.9 18.9 0 00-6.8 1.3c-.8.3-1 .6-1 1.2V65a1.2 1.2 0 001.2 1.2h29.2a10.5 10.5 0 100-21z"/></svg>