<svg xmlns="http://www.w3.org/2000/svg" viewBox="0 0 100 100"><defs/><path fill="#1565d6" d="M50 100a50 50 0 1150-50 50 50 0 01-50 50z"/><path fill="#fff" d="M20 62a1 1 0 010-1 2 2 0 012-1 4 4 0 011 1 9 9 0 013 2 20 20 0 003 3q5 4 10 1a6 6 0 013-4l3-1a38 38 0 01-11-3 18 18 0 01-7-4 17 17 0 01-4-9 24 24 0 011-11 18 18 0 014-5q-2-5 0-12a21 21 0 0112 4 44 44 0 0121 0 36 36 0 014-2 18 18 0 018-2 22 22 0 011 5 17 17 0 01-1 6q5 5 5 13a23 23 0 01-2 10q-2 5-8 8a28 28 0 01-10 2 14 14 0 014 3 9 9 0 012 4v13a7 7 0 002 2 7 7 0 001 1 1 1 0 010 1h-1a7 7 0 01-6-2 5 5 0 010-3v-9a3 3 0 00-1-3 4 4 0 00-2-1v13l1 5a5 5 0 011 2 4 4 0 01-2 0 5 5 0 01-4-3 10 10 0 01-1-5V68h-2v12a11 11 0 01-1 5q-2 3-5 3h-1a17 17 0 001-2 9 9 0 001-2 12 12 0 000-3V68a3 3 0 00-2 1 3 3 0 000 3v9a5 5 0 01-1 3 6 6 0 01-5 2h-2a1 1 0 010-1 6 6 0 011-1 5 5 0 001 0 4 4 0 001-2v-4a20 20 0 010-5q-5 2-10-1a20 20 0 01-4-5 20 20 0 00-4-5z"/></svg>