<svg xmlns="http://www.w3.org/2000/svg" viewBox="0 0 100 100"><defs/><defs><linearGradient id="a" x1="9.6" x2="133.7" y1="84.4" y2="-21.2" gradientUnits="userSpaceOnUse"><stop offset="0" stop-color="#ffe185"/><stop offset=".2" stop-color="#ffbb36"/><stop offset=".4" stop-color="#ff5176"/><stop offset=".5" stop-color="#f63395"/><stop offset=".7" stop-color="#a436d2"/><stop offset="1" stop-color="#5f4eed"/></linearGradient></defs><path fill="url(#a)" d="M50 100a50 50 0 1150-50 50 50 0 01-50 50z"/><path fill="#fff" d="M67 30a4 4 0 104 3 4 4 0 00-4-3zm-17 4a16 16 0 1016 16 16 16 0 00-16-16zm0 26a10 10 0 1110-10 10 10 0 01-10 10zm32-23a19 19 0 00-19-19H38a19 19 0 00-19 19v25a19 19 0 0019 19h25a19 19 0 0019-19zm-6 25a13 13 0 01-13 13H38a13 13 0 01-13-13V37a13 13 0 0113-13h25a13 13 0 0113 13z"/></svg>